<mxfile host="app.diagrams.net" modified="2023-09-12T07:50:04.806Z" agent="Mozilla/5.0 (Windows NT 10.0; Win64; x64) AppleWebKit/537.36 (KHTML, like Gecko) Chrome/116.0.0.0 Safari/537.36" version="21.7.4" etag="64CSY7T5kioGfEExzCyQ" type="github">
  <diagram name="Page-1" id="__2bHTb3bttoCSbyAQfi">
    <mxGraphModel>
      <root>
        <mxCell id="0" />
        <mxCell id="1" parent="0" />
      </root>
    </mxGraphModel>
  </diagram>
</mxfile>
